<mxfile host="app.diagrams.net" agent="Mozilla/5.0 (Windows NT 10.0; Win64; x64) AppleWebKit/537.36 (KHTML, like Gecko) Chrome/132.0.0.0 Safari/537.36 Edg/132.0.0.0" version="26.0.11">
  <diagram name="Page-1" id="dHEjQKyAx2glMH0PPZ7r">
    <mxGraphModel dx="1425" dy="763" grid="1" gridSize="10" guides="1" tooltips="1" connect="1" arrows="1" fold="1" page="1" pageScale="1" pageWidth="2000" pageHeight="2000" math="1" shadow="0">
      <root>
        <mxCell id="0" />
        <mxCell id="1" parent="0" />
        <mxCell id="L2Xz_SyH8n0p4nSWYo8K-233" value="&lt;font style=&quot;color: rgb(255, 255, 255);&quot;&gt;PINN&lt;/font&gt;" style="rounded=1;whiteSpace=wrap;html=1;strokeWidth=2;fillColor=#000000;" parent="1" vertex="1">
          <mxGeometry x="200" y="212.5" width="175" height="87.5" as="geometry" />
        </mxCell>
        <mxCell id="L2Xz_SyH8n0p4nSWYo8K-247" value="" style="endArrow=classic;html=1;rounded=0;exitX=1;exitY=0.75;exitDx=0;exitDy=0;entryX=0;entryY=0.5;entryDx=0;entryDy=0;" parent="1" source="L2Xz_SyH8n0p4nSWYo8K-233" target="yh-87h6LT-zxQJzMNpkT-10" edge="1">
          <mxGeometry width="50" height="50" relative="1" as="geometry">
            <mxPoint x="630" y="460.25" as="sourcePoint" />
            <mxPoint x="700" y="320" as="targetPoint" />
          </mxGeometry>
        </mxCell>
        <mxCell id="L2Xz_SyH8n0p4nSWYo8K-256" value="Multistep Integrator" style="rounded=1;whiteSpace=wrap;html=1;" parent="1" vertex="1">
          <mxGeometry x="550" y="206.99999999999997" width="180" height="93" as="geometry" />
        </mxCell>
        <mxCell id="L2Xz_SyH8n0p4nSWYo8K-257" value="" style="endArrow=classic;html=1;rounded=0;exitX=1;exitY=0.5;exitDx=0;exitDy=0;entryX=0;entryY=0.5;entryDx=0;entryDy=0;" parent="1" source="yh-87h6LT-zxQJzMNpkT-10" target="L2Xz_SyH8n0p4nSWYo8K-256" edge="1">
          <mxGeometry width="50" height="50" relative="1" as="geometry">
            <mxPoint x="620" y="373.3800000000001" as="sourcePoint" />
            <mxPoint x="700" y="214.22000000000003" as="targetPoint" />
          </mxGeometry>
        </mxCell>
        <mxCell id="L2Xz_SyH8n0p4nSWYo8K-262" value="`\tilde{u}(t_{n + 1})`" style="text;html=1;align=center;verticalAlign=middle;whiteSpace=wrap;rounded=0;" parent="1" vertex="1">
          <mxGeometry x="783" y="262" width="60" height="30" as="geometry" />
        </mxCell>
        <mxCell id="L2Xz_SyH8n0p4nSWYo8K-263" value="" style="endArrow=classic;html=1;rounded=0;exitX=1;exitY=0.75;exitDx=0;exitDy=0;entryX=0;entryY=0.5;entryDx=0;entryDy=0;" parent="1" source="L2Xz_SyH8n0p4nSWYo8K-256" target="L2Xz_SyH8n0p4nSWYo8K-262" edge="1">
          <mxGeometry width="50" height="50" relative="1" as="geometry">
            <mxPoint x="880" y="449.28" as="sourcePoint" />
            <mxPoint x="930" y="399.28" as="targetPoint" />
          </mxGeometry>
        </mxCell>
        <mxCell id="yh-87h6LT-zxQJzMNpkT-37" style="edgeStyle=orthogonalEdgeStyle;rounded=0;orthogonalLoop=1;jettySize=auto;html=1;exitX=1;exitY=0.5;exitDx=0;exitDy=0;entryX=1;entryY=0.5;entryDx=0;entryDy=0;" parent="1" source="yh-87h6LT-zxQJzMNpkT-4" target="yh-87h6LT-zxQJzMNpkT-34" edge="1">
          <mxGeometry relative="1" as="geometry" />
        </mxCell>
        <mxCell id="yh-87h6LT-zxQJzMNpkT-4" value="Differential Loss&lt;br&gt;&lt;div&gt;&lt;br&gt;&lt;/div&gt;&lt;div&gt;\( L_D = \left\| u_t(t_n) - \nabla \cdot \left[ \tilde{\kappa}(t_n) \nabla u(t_n) \right] \right\|_\Gamma \)&lt;/div&gt;" style="text;html=1;align=center;verticalAlign=middle;whiteSpace=wrap;rounded=0;" parent="1" vertex="1">
          <mxGeometry x="865" y="332.5" width="242" height="80" as="geometry" />
        </mxCell>
        <mxCell id="yh-87h6LT-zxQJzMNpkT-36" style="edgeStyle=orthogonalEdgeStyle;rounded=0;orthogonalLoop=1;jettySize=auto;html=1;exitX=1;exitY=0.5;exitDx=0;exitDy=0;entryX=1;entryY=0.5;entryDx=0;entryDy=0;" parent="1" source="yh-87h6LT-zxQJzMNpkT-8" target="yh-87h6LT-zxQJzMNpkT-34" edge="1">
          <mxGeometry relative="1" as="geometry" />
        </mxCell>
        <mxCell id="yh-87h6LT-zxQJzMNpkT-8" value="Solution Loss&lt;div&gt;&lt;br&gt;&lt;/div&gt;&lt;div&gt;\( L_u = \left\| u(t_{n+1}) - \tilde{u}(t_{n+1}) \right\|_\Gamma \)&lt;/div&gt;" style="text;html=1;align=center;verticalAlign=middle;whiteSpace=wrap;rounded=0;" parent="1" vertex="1">
          <mxGeometry x="891" y="213.75" width="190" height="70" as="geometry" />
        </mxCell>
        <mxCell id="yh-87h6LT-zxQJzMNpkT-10" value="`\tilde{\kappa}(t_n)`" style="text;html=1;align=center;verticalAlign=middle;whiteSpace=wrap;rounded=0;" parent="1" vertex="1">
          <mxGeometry x="440" y="292.88" width="50" height="30" as="geometry" />
        </mxCell>
        <mxCell id="yh-87h6LT-zxQJzMNpkT-13" value="Derivative Factory" style="rounded=1;whiteSpace=wrap;html=1;" parent="1" vertex="1">
          <mxGeometry x="550" y="320" width="180" height="105" as="geometry" />
        </mxCell>
        <mxCell id="yh-87h6LT-zxQJzMNpkT-15" value="" style="endArrow=classic;html=1;rounded=0;exitX=1;exitY=0.5;exitDx=0;exitDy=0;entryX=0;entryY=0.5;entryDx=0;entryDy=0;" parent="1" source="yh-87h6LT-zxQJzMNpkT-10" target="yh-87h6LT-zxQJzMNpkT-13" edge="1">
          <mxGeometry width="50" height="50" relative="1" as="geometry">
            <mxPoint x="510" y="240" as="sourcePoint" />
            <mxPoint x="560" y="190" as="targetPoint" />
          </mxGeometry>
        </mxCell>
        <mxCell id="yh-87h6LT-zxQJzMNpkT-18" value="`u(t_n)`" style="text;html=1;align=center;verticalAlign=middle;whiteSpace=wrap;rounded=0;" parent="1" vertex="1">
          <mxGeometry x="50" y="231.25" width="70" height="50" as="geometry" />
        </mxCell>
        <mxCell id="yh-87h6LT-zxQJzMNpkT-21" value="" style="endArrow=classic;html=1;rounded=0;exitX=1;exitY=0.5;exitDx=0;exitDy=0;entryX=0;entryY=0.5;entryDx=0;entryDy=0;" parent="1" source="yh-87h6LT-zxQJzMNpkT-18" target="L2Xz_SyH8n0p4nSWYo8K-233" edge="1">
          <mxGeometry width="50" height="50" relative="1" as="geometry">
            <mxPoint x="210" y="450" as="sourcePoint" />
            <mxPoint x="260" y="400" as="targetPoint" />
          </mxGeometry>
        </mxCell>
        <mxCell id="yh-87h6LT-zxQJzMNpkT-24" value="`u(t_{n+1})`" style="text;html=1;align=center;verticalAlign=middle;whiteSpace=wrap;rounded=0;" parent="1" vertex="1">
          <mxGeometry x="783" y="212.5" width="60" height="40.5" as="geometry" />
        </mxCell>
        <mxCell id="yh-87h6LT-zxQJzMNpkT-25" value="" style="endArrow=classic;html=1;rounded=0;exitX=1;exitY=0.5;exitDx=0;exitDy=0;entryX=0;entryY=0.5;entryDx=0;entryDy=0;" parent="1" source="L2Xz_SyH8n0p4nSWYo8K-262" target="yh-87h6LT-zxQJzMNpkT-8" edge="1">
          <mxGeometry width="50" height="50" relative="1" as="geometry">
            <mxPoint x="934" y="472" as="sourcePoint" />
            <mxPoint x="984" y="422" as="targetPoint" />
          </mxGeometry>
        </mxCell>
        <mxCell id="yh-87h6LT-zxQJzMNpkT-26" value="" style="endArrow=classic;html=1;rounded=0;exitX=1;exitY=0.5;exitDx=0;exitDy=0;entryX=0;entryY=0.5;entryDx=0;entryDy=0;" parent="1" source="yh-87h6LT-zxQJzMNpkT-24" target="yh-87h6LT-zxQJzMNpkT-8" edge="1">
          <mxGeometry width="50" height="50" relative="1" as="geometry">
            <mxPoint x="964" y="462" as="sourcePoint" />
            <mxPoint x="1014" y="412" as="targetPoint" />
          </mxGeometry>
        </mxCell>
        <mxCell id="yh-87h6LT-zxQJzMNpkT-28" value="" style="endArrow=classic;html=1;rounded=0;exitX=1;exitY=0.5;exitDx=0;exitDy=0;entryX=0;entryY=0.5;entryDx=0;entryDy=0;" parent="1" source="yh-87h6LT-zxQJzMNpkT-13" target="yh-87h6LT-zxQJzMNpkT-4" edge="1">
          <mxGeometry width="50" height="50" relative="1" as="geometry">
            <mxPoint x="800" y="690" as="sourcePoint" />
            <mxPoint x="850" y="640" as="targetPoint" />
          </mxGeometry>
        </mxCell>
        <mxCell id="yh-87h6LT-zxQJzMNpkT-30" value="" style="endArrow=classic;html=1;rounded=0;exitX=1;exitY=0.5;exitDx=0;exitDy=0;entryX=0;entryY=0.5;entryDx=0;entryDy=0;" parent="1" source="yh-87h6LT-zxQJzMNpkT-18" target="yh-87h6LT-zxQJzMNpkT-13" edge="1">
          <mxGeometry width="50" height="50" relative="1" as="geometry">
            <mxPoint x="170" y="400" as="sourcePoint" />
            <mxPoint x="220" y="350" as="targetPoint" />
            <Array as="points">
              <mxPoint x="250" y="373" />
            </Array>
          </mxGeometry>
        </mxCell>
        <mxCell id="yh-87h6LT-zxQJzMNpkT-34" value="Loss&lt;div&gt;$$ L = L_u + L_D $$&lt;/div&gt;" style="text;html=1;align=center;verticalAlign=middle;whiteSpace=wrap;rounded=0;" parent="1" vertex="1">
          <mxGeometry x="926" y="110" width="120" height="80" as="geometry" />
        </mxCell>
        <mxCell id="yh-87h6LT-zxQJzMNpkT-35" value="" style="endArrow=classic;html=1;rounded=0;exitX=0;exitY=0.5;exitDx=0;exitDy=0;entryX=1;entryY=0.25;entryDx=0;entryDy=0;" parent="1" source="yh-87h6LT-zxQJzMNpkT-34" target="L2Xz_SyH8n0p4nSWYo8K-233" edge="1">
          <mxGeometry width="50" height="50" relative="1" as="geometry">
            <mxPoint x="840" y="130" as="sourcePoint" />
            <mxPoint x="890" y="80" as="targetPoint" />
            <Array as="points">
              <mxPoint x="450" y="150" />
            </Array>
          </mxGeometry>
        </mxCell>
        <mxCell id="yh-87h6LT-zxQJzMNpkT-38" value="$$ u(t_{n-1}) $$&lt;div&gt;$$ u(t_{n-2}) $$&lt;/div&gt;&lt;div&gt;$$ \dots $$&lt;/div&gt;" style="text;html=1;align=center;verticalAlign=middle;whiteSpace=wrap;rounded=0;" parent="1" vertex="1">
          <mxGeometry x="40" y="100" width="80" height="90" as="geometry" />
        </mxCell>
        <mxCell id="yh-87h6LT-zxQJzMNpkT-40" value="" style="endArrow=classic;html=1;rounded=0;exitX=1;exitY=0.5;exitDx=0;exitDy=0;entryX=0;entryY=0.5;entryDx=0;entryDy=0;" parent="1" source="yh-87h6LT-zxQJzMNpkT-38" target="L2Xz_SyH8n0p4nSWYo8K-256" edge="1">
          <mxGeometry width="50" height="50" relative="1" as="geometry">
            <mxPoint x="150" y="90" as="sourcePoint" />
            <mxPoint x="200" y="40" as="targetPoint" />
            <Array as="points">
              <mxPoint x="400" y="145" />
            </Array>
          </mxGeometry>
        </mxCell>
        <mxCell id="yh-87h6LT-zxQJzMNpkT-44" value="" style="endArrow=classic;html=1;rounded=0;exitX=1;exitY=0.5;exitDx=0;exitDy=0;entryX=0;entryY=0.5;entryDx=0;entryDy=0;" parent="1" source="yh-87h6LT-zxQJzMNpkT-45" target="L2Xz_SyH8n0p4nSWYo8K-256" edge="1">
          <mxGeometry width="50" height="50" relative="1" as="geometry">
            <mxPoint x="360" y="90" as="sourcePoint" />
            <mxPoint x="560" y="-40" as="targetPoint" />
            <Array as="points">
              <mxPoint x="400" y="90" />
            </Array>
          </mxGeometry>
        </mxCell>
        <mxCell id="yh-87h6LT-zxQJzMNpkT-45" value="&lt;div&gt;`\tilde{\kappa}(t_{n-1})`&lt;/div&gt;&lt;div&gt;&lt;br&gt;&lt;/div&gt;&lt;div&gt;`\tilde{\kappa}(t_{n-2})`&lt;/div&gt;&lt;div&gt;&lt;br&gt;&lt;/div&gt;&lt;div&gt;\(\dots\)&lt;/div&gt;" style="text;html=1;align=center;verticalAlign=middle;whiteSpace=wrap;rounded=0;" parent="1" vertex="1">
          <mxGeometry x="180" y="40" width="180" height="100" as="geometry" />
        </mxCell>
        <mxCell id="yh-87h6LT-zxQJzMNpkT-46" value="" style="endArrow=classic;html=1;rounded=0;exitX=1;exitY=0.5;exitDx=0;exitDy=0;entryX=0;entryY=0.5;entryDx=0;entryDy=0;" parent="1" source="yh-87h6LT-zxQJzMNpkT-18" target="L2Xz_SyH8n0p4nSWYo8K-256" edge="1">
          <mxGeometry width="50" height="50" relative="1" as="geometry">
            <mxPoint x="150" y="480" as="sourcePoint" />
            <mxPoint x="200" y="430" as="targetPoint" />
            <Array as="points">
              <mxPoint x="190" y="190" />
              <mxPoint x="400" y="190" />
            </Array>
          </mxGeometry>
        </mxCell>
        <mxCell id="yh-87h6LT-zxQJzMNpkT-47" value="" style="endArrow=classic;html=1;rounded=0;exitX=1;exitY=0.5;exitDx=0;exitDy=0;entryX=0;entryY=0.5;entryDx=0;entryDy=0;" parent="1" source="yh-87h6LT-zxQJzMNpkT-38" target="L2Xz_SyH8n0p4nSWYo8K-233" edge="1">
          <mxGeometry width="50" height="50" relative="1" as="geometry">
            <mxPoint x="30" y="190" as="sourcePoint" />
            <mxPoint x="80" y="140" as="targetPoint" />
          </mxGeometry>
        </mxCell>
      </root>
    </mxGraphModel>
  </diagram>
</mxfile>
